<?xml version="1.0" encoding="utf-8"?>
<svg viewBox="0 0 512 512" style="enable-background:new 0 0 512 512;" xmlns="http://www.w3.org/2000/svg">
  <g>
    <g/>
  </g>
  <g>
    <g>
      <path d="M332.906,132.791c-1.668-5.843-3.993-11.452-6.953-16.771c5.724-8.725,4.757-20.585-2.906-28.249 c-4.25-4.249-9.899-6.589-15.91-6.589c-4.45,0-8.699,1.29-12.333,3.681c-5.311-2.953-10.921-5.275-16.775-6.944 C275.909,67.703,266.839,60,256,60c-10.836,0-19.905,7.7-22.029,17.914c-5.843,1.668-11.452,3.993-16.771,6.952 c-3.634-2.393-7.886-3.684-12.338-3.684c-6.01,0-11.66,2.34-15.91,6.59c-7.661,7.661-8.628,19.517-2.909,28.242 c-2.953,5.312-5.275,10.922-6.944,16.776c-10.218,2.122-17.92,11.193-17.92,22.03c0,10.835,7.699,19.905,17.914,22.029 c1.668,5.844,3.993,11.453,6.953,16.772c-5.724,8.725-4.758,20.585,2.906,28.248c4.25,4.249,9.899,6.59,15.91,6.59 c4.45,0,8.699-1.29,12.333-3.682c5.311,2.953,10.921,5.275,16.775,6.943c2.121,10.218,11.193,17.92,22.03,17.92 c10.835,0,19.905-7.699,22.029-17.914c5.844-1.668,11.453-3.993,16.772-6.953c3.634,2.393,7.885,3.685,12.337,3.685 c6.01,0,11.66-2.341,15.91-6.591c7.661-7.661,8.629-19.518,2.908-28.242c2.953-5.312,5.275-10.922,6.944-16.776 c10.218-2.122,17.92-11.193,17.92-22.03C350.82,143.985,343.122,134.915,332.906,132.791z M301.305,98.969 c0.181-0.223,0.349-0.41,0.53-0.59c1.417-1.417,3.3-2.196,5.303-2.196c2.003,0,3.887,0.779,5.303,2.195 c2.924,2.925,2.924,7.684,0,10.607c-1.417,1.417-3.3,2.197-5.303,2.197c-2.003,0-3.887-0.78-5.303-2.196 C299.101,106.25,298.924,101.911,301.305,98.969z M256,75c4.136,0,7.5,3.364,7.5,7.5S260.136,90,256,90 c-4.136,0-7.5-3.364-7.5-7.5S251.865,75,256,75z M199.56,98.379c1.417-1.417,3.3-2.196,5.303-2.196s3.887,0.779,5.303,2.195 c0.182,0.182,0.353,0.372,0.513,0.568c2.399,2.954,2.225,7.301-0.513,10.039c-1.417,1.417-3.3,2.197-5.303,2.197 s-3.887-0.78-5.303-2.196C196.636,106.062,196.636,101.303,199.56,98.379z M183.68,162.32c-4.136,0-7.5-3.364-7.5-7.5 s3.364-7.5,7.5-7.5s7.5,3.364,7.5,7.5S187.816,162.32,183.68,162.32z M210.165,211.262c-1.417,1.417-3.3,2.197-5.303,2.197 s-3.887-0.78-5.303-2.196c-2.924-2.925-2.925-7.683,0-10.607c1.417-1.416,3.299-2.196,5.303-2.196c2.003,0,3.886,0.78,5.303,2.197 C213.089,203.581,213.089,208.339,210.165,211.262z M256,234.641c-4.136,0-7.5-3.364-7.5-7.5s3.364-7.5,7.5-7.5 c4.136,0,7.5,3.364,7.5,7.5S260.136,234.641,256,234.641z M312.442,211.262c-1.417,1.417-3.3,2.197-5.303,2.197 c-2.003,0-3.887-0.78-5.303-2.196c-2.924-2.925-2.925-7.683,0-10.607c1.417-1.416,3.3-2.196,5.303-2.196s3.886,0.78,5.303,2.197 C315.367,203.58,315.365,208.338,312.442,211.262z M317.878,174.742c-1.076,3.356-2.421,6.608-4.029,9.739 c-2.144-0.669-4.399-1.022-6.71-1.022c-6.01,0-11.66,2.341-15.91,6.59c-6.108,6.108-7.951,14.88-5.553,22.608 c-3.139,1.616-6.396,2.966-9.753,4.044c-3.768-7.163-11.282-12.061-19.922-12.061c-8.639,0-16.151,4.896-19.92,12.057 c-3.363-1.078-6.62-2.426-9.756-4.037c2.399-7.729,0.557-16.503-5.552-22.611c-4.25-4.25-9.9-6.591-15.91-6.591 c-2.309,0-4.563,0.353-6.707,1.019c-1.612-3.134-2.96-6.385-4.036-9.735c7.163-3.769,12.061-11.282,12.061-19.922 c0-8.639-4.896-16.151-12.057-19.921c1.075-3.356,2.421-6.607,4.028-9.738c2.145,0.667,4.4,1.021,6.711,1.021 c6.01,0,11.66-2.341,15.91-6.591c6.107-6.108,7.95-14.88,5.553-22.608c3.14-1.616,6.396-2.966,9.753-4.044 C239.847,100.102,247.36,105,256,105c8.639,0,16.151-4.896,19.92-12.057c3.363,1.078,6.62,2.426,9.756,4.037 c-2.399,7.729-0.557,16.503,5.552,22.613c4.25,4.249,9.9,6.59,15.91,6.59c2.31,0,4.563-0.353,6.707-1.019 c1.612,3.134,2.959,6.384,4.036,9.735c-7.163,3.769-12.061,11.282-12.061,19.922C305.821,163.46,310.717,170.972,317.878,174.742z M328.32,162.32c-4.136,0-7.5-3.364-7.5-7.5s3.364-7.5,7.5-7.5s7.5,3.364,7.5,7.5S332.456,162.32,328.32,162.32z"/>
    </g>
  </g>
  <g/>
  <g/>
  <g/>
  <g/>
  <g/>
  <g/>
  <g/>
  <g/>
  <g/>
  <g/>
  <g/>
  <g/>
  <g/>
  <g/>
  <g/>
</svg>